<svg width="30" height="30" viewBox="0 0 30 30" fill="none" xmlns="http://www.w3.org/2000/svg">
<path d="M12.0475 6.09132L5.10991 11.0055C3.78654 11.9429 3 13.4639 3 15.0856V23.5C3 25.1569 4.34315 26.5 6 26.5H10C11.1046 26.5 12 25.6046 12 24.5V20C12 18.3431 13.3431 17 15 17C16.6569 17 18 18.3431 18 20V24.5C18 25.6046 18.8954 26.5 20 26.5H23.5C25.1569 26.5 26.5 25.1569 26.5 23.5V15.0219C26.5 13.4358 25.7475 11.9438 24.472 11.001L17.9096 6.15056C16.1733 4.86723 13.8094 4.84334 12.0475 6.09132Z" fill="#D8D8D8" stroke="#D8D8D8" stroke-width="2" stroke-linecap="round" stroke-linejoin="round"/>
</svg>
